<svg xmlns="http://www.w3.org/2000/svg" width="152" height="31" viewBox="0 0 152 31" fill="none">
  <g clip-path="url(#clip0_3506_14)">
    <path d="M77.26 17.0798H80.96V19.8298C79.81 20.3998 78.54 20.6898 77.25 20.6798C76.51 20.7098 75.77 20.5898 75.08 20.3298C74.39 20.0598 73.77 19.6598 73.24 19.1398C72.72 18.6198 72.31 17.9998 72.04 17.3198C71.77 16.6398 71.65 15.9098 71.69 15.1798C71.65 14.4598 71.76 13.7298 72.02 13.0498C72.28 12.3698 72.68 11.7498 73.19 11.2298C73.7 10.7098 74.32 10.3098 75 10.0398C75.68 9.76978 76.41 9.64979 77.14 9.66979C77.93 9.61979 78.72 9.73979 79.45 10.0198C80.19 10.2998 80.85 10.7298 81.41 11.2898L81.51 11.3898L84.52 8.18978L84.41 8.07978C82.7 6.56978 80.36 5.77979 77.12 5.77979C71.22 5.77979 67.21 9.53978 67.21 15.0898C67.21 20.6398 71.16 24.3998 77.05 24.3998C79.68 24.4698 82.29 23.8898 84.64 22.7098L84.7 22.6498V13.2898H77.24V17.0898L77.26 17.0798Z" fill="currentColor"/>
    <path d="M121.34 14.8698C122.05 13.9698 122.41 12.8398 122.33 11.6998C122.33 8.09982 120.01 6.31982 115.38 6.31982H108.37V23.9398H112.64V16.9798H114.2L117.98 23.9398H123.11L118.48 16.5898C119.62 16.3798 120.64 15.7698 121.35 14.8698H121.34ZM114.74 13.6798H112.72L112.69 9.61982H114.96C116.05 9.61982 117.92 9.91982 117.92 11.6998C117.92 13.4798 116.12 13.6798 114.72 13.6798H114.74Z" fill="currentColor"/>
    <path d="M135.79 6.31982H131.4L123.76 23.9398H128.8L130.13 20.4698H136.91L138.3 23.9398H143.43L135.86 6.41982L135.79 6.31982ZM131.46 16.6898L133.54 11.2398L135.57 16.6898H131.45H131.46Z" fill="currentColor"/>
    <path d="M96.52 5.6301C94.13 5.5701 91.81 6.3701 89.97 7.8701C88.13 9.3801 86.9 11.5001 86.52 13.8401C86.14 16.1801 86.62 18.5701 87.88 20.5801C89.14 22.5901 91.1 24.0801 93.38 24.7701L94.73 20.6901C93.6 20.3401 92.61 19.6301 91.91 18.6901C91.21 17.7401 90.83 16.6001 90.82 15.4301C90.88 13.9601 91.51 12.5801 92.57 11.5601C93.64 10.5401 95.06 9.9701 96.54 9.9701C98.02 9.9701 99.45 10.5401 100.51 11.5601C101.58 12.5801 102.21 13.9701 102.26 15.4301C102.26 16.6201 101.86 17.7801 101.14 18.7301C100.42 19.6801 99.4 20.3801 98.25 20.7101L99.58 24.7901C101.61 24.1801 103.4 22.9501 104.67 21.2601C105.94 19.5801 106.63 17.5301 106.64 15.4301C106.61 12.8001 105.52 10.2901 103.62 8.4501C101.72 6.6101 99.16 5.6001 96.51 5.6301H96.52Z" fill="currentColor"/>
    <path d="M60.78 6.29004H56.39L48.75 23.92H53.79L55.12 20.44H61.89L63.28 23.92H68.41L60.9 6.42004L60.77 6.29004H60.78ZM56.43 16.69L58.51 11.24L60.55 16.69H56.43Z" fill="currentColor"/>
    <path d="M145.74 0H5.67C2.54 0 0 2.54 0 5.67V24.76C0 27.88 2.54 30.43 5.67 30.43H145.75C148.87 30.43 151.42 27.89 151.42 24.76V5.67C151.42 2.55 148.88 0 145.75 0H145.74ZM17.72 23.65H6.08V5.92H10.78V19.39H17.73V23.65H17.72ZM24.27 23.65H19.57V5.92H24.27V23.65ZM43.54 23.65H38.16L30.63 11.82V23.65H26.17V5.92H31.79L31.85 6.02L39.08 17.48V5.92H43.54V23.65ZM148.91 24.76C148.91 26.51 147.49 27.93 145.74 27.93H45.88V2.5H145.74C147.49 2.5 148.91 3.92 148.91 5.67V24.76Z" fill="currentColor"/>
  </g>
  <defs>
    <clipPath id="clip0_3506_14">
      <rect width="151.41" height="30.42" fill="currentColor"/>
    </clipPath>
  </defs>
</svg>